<svg xmlns="http://www.w3.org/2000/svg" viewBox="0 0 64 64" role="img" aria-label="lifei PSI">
  <rect width="64" height="64" rx="14" fill="#0f172a"/>
  <path d="M14 15h34a2 2 0 0 1 2 2v10H14z" fill="#14b8a6"/>
  <path d="M14 29h50v20a2 2 0 0 1-2 2H16a2 2 0 0 1-2-2z" fill="#f8fafc"/>
  <path d="M22 37h8v8h-8zM35 37h17v3H35zM35 43h12v3H35z" fill="#0f766e"/>
  <path d="M14 17a2 2 0 0 1 2-2h10v12H14z" fill="#f59e0b"/>
  <text x="32" y="25" text-anchor="middle" font-family="Arial, sans-serif" font-size="12" font-weight="700" fill="#fff">PSI</text>
</svg>
